<svg id="Capa_1" enable-background="new 0 0 512 512" height="512" viewBox="0 0 512 512" width="512" xmlns="http://www.w3.org/2000/svg"><g><path d="m512 256c0 68.38-26.63 132.67-74.98 181.02s-112.63 74.98-181.01 74.98h-.01c-68.38 0-132.67-26.63-181.02-74.98-48.35-48.35-74.98-112.64-74.98-181.02s26.63-132.67 74.98-181.02 112.64-74.98 181.02-74.98h.01c68.38 0 132.66 26.63 181.01 74.98s74.98 112.64 74.98 181.02z" fill="#6f7f8f"/><path d="m512 256c0 68.38-26.63 132.67-74.98 181.02s-112.63 74.98-181.01 74.98v-512c68.38 0 132.66 26.63 181.01 74.98s74.98 112.64 74.98 181.02z" fill="#4a5f77"/><path d="m362.245 256c0 58.62-47.66 106.31-106.24 106.31-58.59 0-106.25-47.69-106.25-106.31s47.66-106.31 106.25-106.31c58.58 0 106.24 47.69 106.24 106.31z" fill="#ff6e98"/><path d="m362.245 256c0 58.62-47.66 106.31-106.24 106.31v-212.62c58.58 0 106.24 47.69 106.24 106.31z" fill="#dd458b"/><path d="m300.975 256c0 24.81-20.17 45-44.97 45s-44.98-20.19-44.98-45 20.18-45 44.98-45 44.97 20.19 44.97 45z" fill="#fff"/><path d="m300.975 256c0 24.81-20.17 45-44.97 45v-90c24.8 0 44.97 20.19 44.97 45z" fill="#dcf8ff"/><g><path d="m256 445.687c-104.594 0-189.687-85.093-189.687-189.687h30c0 88.051 71.635 159.687 159.687 159.687z" fill="#9aa3af"/></g><path d="m419.488 0v97.936c-4.687-1.661-9.728-2.565-14.977-2.565-24.8 0-44.977 20.187-44.977 45s20.177 45 44.977 45 44.977-20.187 44.977-45v-110.371h32.512v-30z" fill="#92d346"/></g></svg>